<svg width="196" height="50" viewBox="0 0 196 50" fill="none" xmlns="http://www.w3.org/2000/svg">
<rect width="196" height="50" fill="#E8E9EA"/>
<path opacity="0.98" d="M26.242 14.8H29.726L37.318 26.37C37.318 26.37 37.942 27.41 38.098 27.8V14.8H41.426V33H37.942L30.35 21.352C30.35 21.352 29.726 20.312 29.57 19.922V33H26.242V14.8ZM42.8605 33L50.2185 14.8H53.4945L60.8525 33H57.1865L55.3665 28.242H48.3465L46.5265 33H42.8605ZM49.5165 25.174H54.1965L52.5325 20.806C52.5325 20.806 52.1945 19.922 51.8565 18.83C51.5185 19.922 51.1805 20.806 51.1805 20.806L49.5165 25.174ZM62.2967 14.8H65.9107L71.7087 29.256L77.5067 14.8H81.1207V33H77.7927V21.872L76.9087 24.654L73.3467 33H70.0707L66.5087 24.654L65.6247 21.872V33H62.2967V14.8ZM84.3611 14.8H96.9191V17.868H87.7931V22.054H96.1911V25.122H87.7931V29.932H96.9971V33H84.3611V14.8ZM102.826 19.35C102.826 20.754 104.178 21.56 107.22 22.184C111.198 23.016 113.174 24.706 113.174 27.774C113.174 30.738 110.626 33.364 106.388 33.364C102.124 33.364 99.5496 31.258 98.7436 28.502L101.734 27.098C102.436 28.866 103.632 30.348 106.362 30.348C108.416 30.348 109.742 29.36 109.742 27.904C109.742 26.214 108.182 25.46 105.244 24.888C101.942 24.238 99.5496 22.522 99.5496 19.428C99.5496 16.412 102.15 14.436 105.946 14.436C109.3 14.436 111.406 15.762 112.654 18.232L109.846 19.792C108.884 18.284 107.662 17.452 105.868 17.452C104.256 17.452 102.826 18.05 102.826 19.35ZM115.947 14.8H119.379V22.132H127.335V14.8H130.767V33H127.335V25.304H119.379V33H115.947V14.8ZM152.098 23.9C152.098 29.334 148.094 33.364 142.738 33.364C137.382 33.364 133.378 29.334 133.378 23.9C133.378 18.466 137.382 14.436 142.738 14.436C148.094 14.436 152.098 18.466 152.098 23.9ZM142.738 30.192C146.04 30.192 148.614 27.826 148.614 23.9C148.614 19.974 146.04 17.608 142.738 17.608C139.436 17.608 136.862 19.974 136.862 23.9C136.862 27.826 139.436 30.192 142.738 30.192ZM154.693 33V14.8H162.961C167.069 14.8 169.773 16.906 169.773 20.728C169.773 24.55 167.069 26.656 162.961 26.656H158.125V33H154.693ZM158.125 23.588H162.857C165.249 23.588 166.341 22.444 166.341 20.728C166.341 19.012 165.249 17.868 162.857 17.868H158.125V23.588Z" fill="#252525"/>
</svg>
